<?xml version="1.0" encoding="iso-8859-1"?>
<!-- Generator: Adobe Illustrator 19.0.0, SVG Export Plug-In . SVG Version: 6.00 Build 0)  -->
<svg version="1.1" id="Layer_1" xmlns="http://www.w3.org/2000/svg" xmlns:xlink="http://www.w3.org/1999/xlink" x="0px" y="0px"
	 viewBox="0 0 330 330" style="enable-background:new 0 0 330 330;" xml:space="preserve">
<g id="XMLID_107_">
	<path id="XMLID_108_" d="M135,90H15c-8.284,0-15,6.716-15,15s6.716,15,15,15h120c8.284,0,15-6.716,15-15S143.284,90,135,90z"/>
	<path id="XMLID_109_" d="M135,150H15c-8.284,0-15,6.716-15,15c0,8.284,6.716,15,15,15h120c8.284,0,15-6.716,15-15
		C150,156.716,143.284,150,135,150z"/>
	<path id="XMLID_110_" d="M135,210H15c-8.284,0-15,6.716-15,15c0,8.284,6.716,15,15,15h120c8.284,0,15-6.716,15-15
		C150,216.716,143.284,210,135,210z"/>
	<path id="XMLID_138_" d="M328.858,129.26c-2.322-5.605-7.791-9.26-13.858-9.26H195c-6.067,0-11.536,3.655-13.858,9.26
		c-2.321,5.605-1.038,12.057,3.252,16.347l60,60C247.322,208.536,251.161,210,255,210s7.678-1.464,10.606-4.394l60-60
		C329.897,141.317,331.18,134.865,328.858,129.26z M255,173.787L231.213,150h47.574L255,173.787z"/>
</g>
<g>
</g>
<g>
</g>
<g>
</g>
<g>
</g>
<g>
</g>
<g>
</g>
<g>
</g>
<g>
</g>
<g>
</g>
<g>
</g>
<g>
</g>
<g>
</g>
<g>
</g>
<g>
</g>
<g>
</g>
</svg>
